<?xml version="1.0" standalone="no"?>
<!DOCTYPE svg PUBLIC "-//W3C//DTD SVG 20010904//EN"
 "http://www.w3.org/TR/2001/REC-SVG-20010904/DTD/svg10.dtd">
<svg version="1.0" xmlns="http://www.w3.org/2000/svg"
 width="384.000000pt" height="354.000000pt" viewBox="0 0 384.000000 354.000000"
 preserveAspectRatio="xMidYMid meet">

<g transform="translate(0.000000,354.000000) scale(0.100000,-0.100000)"
fill="#000000" stroke="none">
<path d="M1771 3308 c-11 -29 -108 -264 -299 -723 -27 -66 -97 -232 -155 -370
-57 -137 -164 -394 -237 -570 -168 -407 -286 -691 -449 -1079 -79 -187 -121
-254 -187 -292 -57 -33 -59 -60 -6 -65 20 -2 176 -3 345 -1 307 3 308 3 305
24 -2 13 -15 26 -33 32 -54 20 -74 36 -102 84 -26 44 -28 54 -28 167 0 98 5
134 24 195 101 325 393 557 726 576 226 14 494 -116 640 -310 57 -76 54 -68
279 -631 51 -128 52 -130 86 -135 19 -3 167 -4 328 -2 286 4 293 4 290 24 -2
14 -19 25 -56 37 -104 36 -202 123 -258 231 -10 19 -57 133 -105 254 l-87 219
-128 42 c-188 62 -318 123 -464 219 -72 46 -151 92 -175 102 -25 9 -45 20 -45
24 0 10 131 27 345 45 307 26 439 49 607 105 85 29 234 99 292 138 28 20 29
20 64 -1 22 -13 52 -21 82 -21 177 0 220 246 54 310 -40 15 -53 16 -93 5 -51
-13 -93 -48 -111 -92 -11 -25 -10 -104 1 -137 6 -21 -140 -96 -264 -137 -167
-54 -464 -84 -674 -68 l-102 8 101 75 c246 182 444 426 554 679 l33 76 52 7
c88 11 139 69 139 157 0 88 -67 151 -161 151 -153 0 -214 -174 -97 -280 l29
-27 -39 -75 c-69 -134 -134 -220 -257 -344 -142 -143 -287 -253 -434 -328
-126 -64 -252 -104 -456 -145 -184 -37 -278 -67 -418 -135 -59 -29 -109 -51
-111 -48 -11 10 91 280 380 1004 144 360 174 432 179 426 7 -8 143 -339 341
-832 35 -88 66 -161 68 -164 6 -5 128 71 196 123 67 51 130 113 130 127 0 9
-43 118 -245 618 -70 173 -167 412 -214 530 l-87 215 -42 3 c-36 3 -43 0 -51
-20z"/>
<path d="M2365 1250 c-8 -12 21 -30 136 -84 115 -55 293 -102 446 -118 l113
-12 10 -31 c30 -90 154 -135 230 -82 55 37 74 70 74 131 1 58 -16 92 -66 129
-70 52 -189 22 -228 -58 -20 -42 -22 -43 -63 -38 -234 25 -409 70 -609 157
-22 9 -39 12 -43 6z"/>
<path d="M1945 15 l-30 -13 43 -1 c31 -1 42 3 42 14 0 18 -16 18 -55 0z"/>
</g>
</svg>
