<?xml version="1.0" standalone="no"?>
<!DOCTYPE svg PUBLIC "-//W3C//DTD SVG 20010904//EN"
 "http://www.w3.org/TR/2001/REC-SVG-20010904/DTD/svg10.dtd">
<svg version="1.0" xmlns="http://www.w3.org/2000/svg"
 width="264.000000pt" height="220.000000pt" viewBox="0 0 264.000000 220.000000"
 preserveAspectRatio="xMidYMid meet">

<g transform="translate(0.000000,220.000000) scale(0.100000,-0.100000)"
fill="#000000" stroke="none">
<path d="M1095 2125 c-396 -66 -703 -385 -746 -774 -30 -272 67 -541 264 -728
130 -123 257 -195 422 -238 167 -44 419 -45 553 -4 17 6 32 13 32 15 0 2 -12
23 -27 46 -36 58 -111 136 -224 234 -109 94 -139 141 -139 219 0 126 123 241
300 281 l70 16 31 -26 c62 -53 149 -21 149 55 0 98 -136 124 -170 33 -5 -13
-17 -24 -27 -24 -10 0 -27 -3 -39 -6 -18 -5 -20 -2 -16 25 3 26 0 32 -23 43
-24 11 -29 10 -45 -10 -10 -12 -16 -30 -13 -40 5 -22 -3 -30 -82 -74 -33 -19
-73 -43 -90 -54 l-29 -19 19 34 c33 57 117 142 178 182 60 39 150 73 225 84
56 9 122 -3 122 -21 0 -26 39 -54 76 -54 47 0 70 13 83 50 29 84 -68 143 -137
85 -26 -21 -92 -36 -92 -20 0 2 29 33 63 69 41 41 76 89 98 134 30 62 39 71
72 82 80 24 86 125 10 157 -37 15 -67 10 -97 -16 -34 -30 -38 -59 -15 -106
l21 -43 -28 -53 c-35 -66 -125 -159 -182 -188 -23 -12 -75 -33 -115 -47 -39
-15 -91 -38 -114 -51 -24 -14 -43 -22 -43 -18 0 4 14 27 32 51 24 34 38 44 59
44 39 0 63 37 50 74 -18 46 -101 27 -101 -23 0 -10 -20 -49 -45 -85 -25 -37
-45 -72 -45 -77 0 -16 -92 -119 -102 -113 -12 8 -10 51 4 73 15 25 -6 53 -36
49 -24 -3 -32 -32 -18 -62 24 -48 23 -102 -2 -157 -14 -30 -31 -76 -38 -104
-12 -48 -12 -49 -19 -20 -12 54 -9 219 5 270 45 170 174 320 358 415 73 39 79
40 100 26 72 -51 168 29 127 103 -23 41 -63 56 -107 39 -30 -11 -40 -22 -52
-56 -8 -23 -19 -42 -25 -42 -5 0 -39 -14 -73 -30 -35 -17 -68 -30 -74 -30 -11
0 -2 94 14 150 27 95 40 120 64 120 36 0 54 10 69 41 22 42 18 67 -14 100 -76
76 -188 -10 -134 -103 19 -33 19 -33 -4 -84 -27 -60 -43 -137 -43 -209 0 -49
-2 -54 -37 -80 -21 -16 -59 -49 -85 -74 -46 -43 -48 -44 -48 -20 0 16 14 39
39 63 22 22 49 61 61 87 11 27 25 49 30 49 20 0 23 50 5 70 -23 25 -47 25 -68
2 -21 -23 -21 -41 -3 -68 13 -18 13 -24 0 -50 -20 -38 -66 -86 -74 -77 -4 5
-15 30 -24 56 -14 36 -15 52 -7 60 20 20 13 76 -14 102 -52 53 -145 16 -145
-57 0 -18 6 -40 13 -49 17 -22 54 -40 75 -37 36 6 85 -149 68 -217 -9 -33 -19
-32 -60 11 -28 29 -34 42 -30 63 11 52 -62 84 -89 40 -15 -24 0 -67 25 -75 31
-10 118 -103 111 -120 -3 -8 -7 -14 -9 -14 -1 0 -26 25 -55 55 -28 30 -73 65
-100 77 -31 15 -48 29 -49 41 0 34 -45 67 -90 67 -84 0 -119 -82 -61 -141 35
-35 77 -38 114 -8 22 17 30 18 49 8 47 -24 109 -82 134 -124 23 -40 24 -47 13
-87 -6 -24 -12 -77 -13 -119 l-1 -75 -44 34 c-24 18 -66 44 -93 58 -38 20 -48
29 -48 50 0 33 -50 84 -84 84 -42 0 -74 -18 -91 -49 -21 -42 -19 -65 11 -100
21 -25 33 -31 65 -31 22 0 48 6 59 12 29 18 94 -19 163 -91 57 -60 96 -127
140 -246 15 -38 43 -96 62 -128 l35 -58 -38 7 c-82 15 -233 83 -302 136 -63
48 -166 159 -205 223 -93 149 -128 349 -91 510 47 197 190 376 374 464 78 38
141 58 246 75 48 9 94 21 102 27 17 14 18 53 2 67 -22 18 -101 21 -183 7z"/>
<path d="M1972 1633 c-8 -13 -3 -42 15 -103 34 -117 42 -287 18 -395 -21 -95
-79 -210 -148 -295 l-52 -63 70 -64 c38 -35 74 -62 80 -60 20 6 105 144 136
222 74 188 79 402 13 611 -36 113 -63 158 -96 162 -18 2 -30 -3 -36 -15z"/>
<path d="M1321 859 l-33 -10 129 -132 c71 -73 174 -186 229 -252 194 -231 252
-268 426 -273 89 -3 121 0 183 19 41 12 75 25 75 28 0 3 -28 27 -63 53 -69 52
-147 120 -353 312 -151 140 -245 207 -332 238 -66 23 -210 33 -261 17z"/>
</g>
</svg>
